<svg xmlns="http://www.w3.org/2000/svg" viewBox="0 0 512 512"><rect width="512" height="512" rx="112" fill="#fff"/><g transform="translate(80 56) rotate(-8 176 176)"><path d="M176 0 352 176 286 242 176 132 66 242 0 176Z" fill="#061426"/><circle cx="176" cy="84" r="29" fill="#fff"/><path d="M66 242c55-55 118-55 176 0l-44 44c-30-29-57-29-88 0Z" fill="#fff"/><path d="M132 286c30-30 59-30 88 0l-44 44Z" fill="#061426"/><path d="M154 238c30-30 59-30 88 0" fill="none" stroke="#fff" stroke-width="18" stroke-linecap="round"/><path d="M176 286c30-30 59-30 88 0" fill="none" stroke="#061426" stroke-width="18" stroke-linecap="round"/></g></svg>